<?xml version="1.0" encoding="UTF-8"?>
<svg id="Layer_1" data-name="Layer 1" xmlns="http://www.w3.org/2000/svg" viewBox="0 0 64 64">
  <defs>
    <style>
      .cls-1 {
        fill: #1d1e1f;
      }
    </style>
  </defs>
  <path class="cls-1" d="M51.56,32.26H12.44c-2.05,0-3.71,1.66-3.71,3.71v18.42c0,2.05,1.66,3.71,3.71,3.71h11.18l21.13-8.72v-4.38l-25.95,4.41c-.33.06-.68-.04-.94-.26-.26-.22-.41-.54-.41-.89v-7.17h2.32v5.8l24.98-4.24v-1.55h2.32v9.06c0,.47-.28.89-.72,1.07l-16.65,6.87h21.86c2.05,0,3.71-1.66,3.71-3.71v-18.42c0-2.05-1.66-3.71-3.71-3.71Z"/>
  <path class="cls-1" d="M26.83,29.85h10.34c4.34-1.97,7.37-6.34,7.37-11.42,0-6.92-5.61-12.54-12.53-12.54s-12.54,5.61-12.54,12.54c0,5.08,3.02,9.45,7.37,11.42Z"/>
</svg>